<svg xmlns="http://www.w3.org/2000/svg" width="452.969" height="140.629" viewBox="0 0 12184.27 3782.75" shape-rendering="geometricPrecision" text-rendering="geometricPrecision" image-rendering="optimizeQuality" fill-rule="evenodd" clip-rule="evenodd"><defs><mask id="b"><linearGradient id="a" gradientUnits="userSpaceOnUse" x1="5481.66" y1="5106.96" x2="5497.02" y2="930.59"><stop offset="0" stop-color="#fff"/><stop offset="1" stop-opacity="0" stop-color="#fff"/></linearGradient><path fill="url(#a)" d="M248.41 248.42h11687.44v3285.93H248.41z"/></mask></defs><path d="M10335.98 378.92c0-76.64 24.53-148.6 78.91-203.95 65.82-66.98 148.05-85.64 238.4-85.64 49.03 0 97.14 9.23 144.78 9.23 28.44 0 67.11-9.53 96.17-13.4l15-1.99h15.12c49.45 0 97.72 12.25 140.92 36.38 95.93 53.59 140.5 144.55 161.02 243.59l43.66-2.07c33.52-138.92 120.59-256.34 282.79-256.34 65.92 0 129.35 18.49 190.99 18.49h49.29c93.98 0 182.25 31.66 249.28 98.81 138.71 139 107.06 311.45 114.05 483.39 9.52 234.1 24.84 467.94 24.84 702.34 0 36.02-3.08 71.92-3.08 107.82 0 60.53 6.16 121 6.16 181.74 0 118.21-9.24 236.14-9.24 354.25 0 81.12 6.16 162.13 6.16 243.34 0 111.79-12.45 224.09-9.33 335.54l.09 3.19v43.23c0 202.64-7.36 476.02-104.13 656.17l-5.33 9.89-6.26 9.33c-48.73 72.58-104.1 139.87-169.91 197.68-203.73 178.96-458.69 223.57-721.68 223.57-163.23 0-325.04-25.02-463.66-117.16-40.3-26.79-75.82-57.36-107.2-90.94-79.58 76.46-204.72 111.9-316.09 128.28-78.9 11.61-160.47 18.21-240.23 18.21-87.66 0-175.27.93-262.9-2.17-82.1-2.9-164.93-7.99-245.64-24.04-132.08-26.27-256.49-93.07-282.63-238.44-.1-.58-.21-1.17-.32-1.75-30.77 37.27-64.13 72.31-100.7 104.44-203.72 178.96-458.69 223.57-721.68 223.57-163.23 0-325.04-25.02-463.65-117.16-40.31-26.79-75.83-57.36-107.2-90.94-79.59 76.46-204.73 111.9-316.1 128.28-78.89 11.61-160.47 18.21-240.22 18.21-87.67 0-175.28.93-262.9-2.17-82.1-2.9-164.93-7.99-245.65-24.04-130.45-25.94-253.42-91.43-281.61-233.11-36.22 18.05-77.82 28.29-124.46 28.29-36.99 0-74.06 2.35-110.99 4.25-165.15 8.5-358.95 14.19-468.86-135.39a293.064 293.064 0 01-20.79-32.56v31.21c0 44.12-10.06 87.43-29.86 126.9a280.834 280.834 0 01-31.07 48.64c-117.19 147.55-312.52 133.85-478.32 147.2l-9.15.73h-9.18c-82.75 0-154.61-8.14-224.14-58.85-.12-.08-.23-.17-.36-.25-81.87 118.23-240.57 145.45-374.4 158.99-74.11 7.49-148.84 11.01-223.32 11.01-132.04 0-219.9-90.79-277.66-199.21-35.48-66.58-61.88-137.84-85.89-209.22-17.58-52.24-33.55-104.98-48.85-157.91a3430.8 3430.8 0 01-15.35 48.66c-24.8 76.48-51.76 152.97-89.16 224.33-59.07 112.71-150.45 207.09-287.07 207.09-161.24 0-344.8-13.96-444.06-161.94-1.39-2.07-2.76-4.16-4.09-6.25-32.7 24.35-69.39 46.05-110.53 64.7-219.68 99.56-396.94 143.54-639.35 143.54-180 0-356.54-34.36-499.25-151.16-151.06-123.65-221.02-304.63-262.99-489.63-23.74-104.63-39.03-210.93-51.85-317.39-15.35-127.45-26.91-255.3-38.31-383.14-.97-10.9-2.12-21.66-3.42-32.33-82.71 74.08-187.05 126.82-318.38 147.87l-13.04 2.08-13.2.58c-69.72 3.03-139.52 3.02-209.23 6.15l-5.06.22h-5.07c-11.46 0-21.72-.99-32.38-2.22-3.02.19-6.04.38-9.06.55 5.68 257.12 24.41 513.98 32.13 771.02l.11 3.43v3.44c0 74.04-22.02 144.81-65.78 204.74-71.14 97.47-181.44 144.22-296.7 165.45-43.37 7.99-87.16 12.42-131.13 15.35-21.24 1.42-43.43 1.52-64.49 4.07l-13.56 1.63h-13.66c-126.07 0-212.87-85.86-256.26-196.99-22.66-58.04-35.62-119.62-46.28-180.84-25.25-145.25-36.97-292.71-47.04-439.67-7.84-114.23-13.66-228.59-18.78-342.98-3.4-76.05-5.88-152.15-10.21-228.16l-.37-6.49v-61.94c0-85.24 3.08-170.44 3.08-255.67 0-79.02-9.23-157.85-9.23-237.19 0-91.4 3.07-182.76 3.07-274.15v-107.82c0-273.18 18.21-545.71 24.64-818.71-.21-48.37-6.16-96.68-6.16-145.43 0-244.76 280.37-319.98 474.69-347.72 69.14-9.88 139.31-15.8 209.18-15.8h178.66c66.74 0 133.45-3.08 200.23-3.08 195.5 0 374.57 63.81 511.23 206.77 25.39 26.55 48.34 54.82 69.08 84.48.63-.91 1.26-1.83 1.9-2.74 156-223.75 406.73-297.74 668.16-297.74h12.33c90.13 0 179.96-15.4 271.07-15.4 162.35 0 317.19 39.92 444 145.22 60.21 49.99 107.63 109.37 145.34 174.57 3.32-32.66 13.12-64.22 29.19-93.24 63.34-114.37 193.5-149.56 312.61-169.43 58.16-9.71 118.55-17.07 177.56-17.07 173.24 0 275.28 139.93 339.14 282.35 40.65 90.62 71.19 185.77 98.71 281.38 13.22-52.8 27.66-105.3 44.22-157.16 54.94-172.13 150.09-394.25 365.02-394.25 82.16 0 164.27-3.08 246.43-3.08 110.85 0 212.55 52.51 266.85 139.46 10.57-9.8 21.66-19.28 33.27-28.38 134.32-105.46 300.41-132.63 466.64-132.63 213.93 0 540.31 11.45 711.97 148.28 54.2 43.2 106.67 81.55 154.32 122.07 5.5-11.86 11.95-23.74 19.48-35.68 65.37-103.63 175.54-145.34 293.77-145.34 137.42 0 279.36-4.67 393.52 88.14 56.17 45.66 87.85 103.89 112.15 165.45 36.99 93.75-19.27 29.73 324.92 96.98-1.22-29.54-2.26-59.1-2.26-88.69 0-76.64 24.53-148.6 78.92-203.95 65.82-66.98 148.05-85.64 238.39-85.64 49.03 0 97.15 9.23 144.78 9.23 28.45 0 67.11-9.53 96.17-13.4l15-1.99h15.13c49.44 0 97.72 12.25 140.92 36.38 138.12 77.14 169.77 231.78 176.47 376.47.49 10.62.85 21.26 1.14 31.88l8.79 1.1c.55-34.63 2.34-69.11 6.68-103.96 20.55-164.84 107.73-320.31 294.39-320.31 65.92 0 129.34 18.49 190.99 18.49h49.29c80.56 0 156.94 23.26 219.33 72.22 64.03-55.07 147.92-78.39 236.31-78.39 137.42 0 279.37-4.67 393.52 88.14 110.34 89.7 137.68 223.62 143.89 356.88 244.29-35.26 283.66-84.45 290.93-183.15z" fill="#cb3c38"/><path d="M1677.29 870.31c7.66-161.63 33.6-332.17 124.65-462.76 123.44-177.06 327.43-227.09 532.75-227.09h12.33c90.38 0 180.31-15.4 271.07-15.4 123.04 0 242.1 27.06 338.55 107.14 139.99 116.24 191.31 312.47 218.6 484.65 18.21 114.89 27.54 232.1 34.65 348.15 8.39 136.84 13.46 273.97 19.37 410.93l2.83 65.63h-6.05c-1.07 172.07-5.96 344.1-5.96 516.19 0 189.01 15.39 377.71 15.39 566.78 0 274.31 35.68 641.89-264.89 778.12-198.47 89.95-349.11 128.82-571.2 128.82-139.92 0-283.3-22.65-394.7-113.84-119.8-98.06-173.41-252.26-206.56-398.4-22.4-98.7-36.85-200.17-48.94-300.6-15.14-125.68-26.54-251.99-37.78-378.06-10.61-119.17-46.33-226.05-43.37-348.29.04-186.75 15.4-373.13 15.4-559.84 0-23.04-.15-46.07-.45-69.1-4.01 353.31-64.02 876.7-483.91 944.43l-3.63.58-3.66.16c-69.79 3.03-139.68 3.13-209.46 6.16l-1.36.06h-1.37c-10.6 0-19.53-2.15-29.3-2.94-26.72 2.42-53.7 2.84-80.49 4-17.58.76-85.31 4.06-97.38 17.99-.52.59-.82 2.43-.99 3.82.14 305.75 24.6 610.98 33.86 916.5l.02.96v.96c0 39.04-10.92 75.77-34.02 107.42-44.46 60.9-122.05 87.32-193.27 100.44-37.07 6.82-74.65 10.47-112.23 12.98-23.99 1.61-49.48 2.03-73.22 4.88l-3.74.45h-3.76c-54.39 0-84.89-46.89-102.5-91.96-18.09-46.34-28.89-100.16-37.4-149.09-24-137.98-35.42-282.95-45-422.68-7.75-112.92-13.5-225.97-18.55-339.04-3.42-76.66-5.93-153.59-10.31-230.18l-.1-1.79v-57.25c0-85.24 3.08-170.43 3.08-255.67 0-79.13-9.23-157.95-9.23-237.19 0-91.4 3.07-182.75 3.07-274.15v-107.82c0-272.69 18.29-544.55 24.65-817.01-.07-49.04-6.17-97.94-6.17-147.14 0-131.13 236.57-170.55 332.96-184.32 61.03-8.71 124.19-14.14 185.85-14.14h178.66c66.74 0 133.48-3.08 200.23-3.08 150.26 0 286.7 45.72 391.92 155.77 110.19 115.25 162.78 276.79 188.38 431.02 5.16 31.1 9.34 62.4 12.67 93.82zm2322.46 1692.31c-.68 1.8-1.28 3.42-1.79 4.8-22.09 60.33-38.86 124.36-54.54 186.66-22.02 87.46-40.73 178.77-67.18 264.73-20.03 65.11-38.61 130.55-59.63 195.37-21.51 66.34-45.95 136.81-78.34 198.61-28.33 54.08-72.47 118.65-140.87 118.65-95.29 0-247.45-.09-306.99-88.83-16.43-24.49-23.93-52.54-23.93-81.9 0-132.4 65.64-266.65 100.17-393.14 36.5-187.45 98.21-368.01 169.51-544.8 59.39-147.27 127.51-291.92 184.23-439.93 12.51-32.66 28.59-64.62 44.05-95.99 10.39-21.1 46.32-91.24 47.27-112.52 0-26.8-13.7-73.82-21.1-99.82-15.64-55.07-34.01-109.76-52.78-163.83-19.9-57.31-40.68-114.31-61.55-171.26-13.62-37.17-28.49-75.29-40.34-113-77.34-246.06-151.21-493.18-227.98-739.42-14.54-46.6-36.74-91.99-36.74-141.94 0-90.12 137.59-113.83 205.17-125.11 47.61-7.95 102.06-14.82 150.39-14.82 96.08 0 154.59 109.16 188.54 184.84 47.32 105.54 81.37 224.42 112.16 335.9 27.94 101.16 53.25 203.17 82.13 304.02 5.2 18.11 18.59 65.13 32.48 103.68 59.87-116.79 155.58-386.75 173.45-452.01 14.83-62.04 31.16-123.95 50.56-184.72 28.68-89.85 90.78-279.37 207.77-279.37 82.16 0 164.27-3.08 246.43-3.08 71.8 0 143 42.03 143 121.45 0 91.52-49.59 227.63-84.79 313.43-158.74 386.92-317.25 774.03-480.84 1158.94l-.76 1.79-.86 1.74c-4.37 8.73-5.68 17.62-5.68 27.31 0 63.59 40.11 158.7 65.19 216.96 31.57 73.33 70.76 150.25 95.05 225.84 69.73 216.94 129.33 436.26 177.2 659.07 15.63 72.71 46.73 148.05 73.2 217.63 35.38 92.95 79.15 206.8 79.15 306.93 0 114.62-189.11 133.68-272.07 142.08-68.05 6.88-138.24 10.18-206.69 10.18-63.87 0-105.25-61.6-131.98-111.76-30.61-57.46-54.37-122.55-75.11-184.23-17.36-51.62-33.09-103.8-48.17-156.13-9.92-34.43-19.17-69.39-29.74-103.6-28.95-93.86-46.59-191.35-65.85-287.55-13.94-69.58-28.96-142.28-50.78-211.82zm1022.3 78.19c-9.26-324.19-18.7-648.36-27.69-972.55l-.03-.87v-.87c0-308.89 21.48-616.7 40.16-924.83l.07-1.18.12-1.17c15.77-160.35 53.75-343.98 187.68-449.14 102.76-80.67 238.1-97.39 364.71-97.39 166.45 0 478.16 7.93 609.08 112.29 117.37 93.56 250.56 169.09 292.62 325.5 65.55 243.78 57.59 505.17 57.59 755.62 0 131.5-15.39 262.68-15.39 394.29 0 42.11 3.08 84.15 3.08 126.3 0 410.4 16.51 826.28-21.58 1235.28-.98 78.14-38.08 173.75-130.67 173.75-39.78 0-79.76 2.42-119.48 4.46-96.53 4.97-262.66 19.76-327.35-68.28-17.75-24.15-25.78-52.49-25.78-82.28 0-55.47 3.08-110.89 3.08-166.34 0-48.61 2.12-97.26 3.06-145.86 1.01-52.07 1.71-108.93-6.22-160.43-1.74-11.32-10.26-55.22-21.03-61.89-.59-.18-1.63-.15-2.22-.15-102.68 0-205.35 3.08-308.03 3.08-8.03 0-15.1-1.23-22.3-2.18-1.87 16.59-1.04 46.33-1.04 56.31 0 86.37 3.73 173.07 10.38 259.19 9.17 118.88 23.62 242.1 49.7 358.52l1.52 6.79v31.61c0 18.43-4.06 36.38-12.34 52.88-54.81 109.26-268.63 96.69-375.09 105.32l-2.54.2h-2.54c-43.82 0-89.8-.11-126.88-27.14-48.75-35.56-56-97.88-56.18-153.74-15.33-228.04-18.47-456.63-18.48-685.11zm2116.68-1977.2c3.32 41.66 8.07 83.01 8.07 125.01 0 61.86-9.24 123.21-9.24 184.82 0 139.78 18.48 278.98 18.48 418.93 0 156.08-3.08 312.13-3.08 468.22 0 63.67 3.08 127.31 3.08 190.99 0 22.68-3.08 45.16-3.08 67.76 0 292.75 43.89 583.79 46.13 876.58 131.56-.58 261.8-27.55 393.15-33.8l1.49-.07h1.49c107.26 0 142.16 134.16 156.73 217.79 10.4 59.71 17.09 129.2 17.09 190.13 0 116.37-168.64 147.54-256.4 160.45-69.35 10.2-145.92 16.45-216.21 16.45-85.83 0-171.24.97-257.08-2.06-71.91-2.54-148.67-6.93-219.28-20.97-59.77-11.89-139.81-35.97-152.35-105.76-34.12-189.77-53.36-375.65-53.36-568.67v-64.69c0-30.79-3.08-61.55-3.08-92.41 0-50.44 6.16-100.64 6.16-150.94 0-55.41-9.24-110.57-9.24-166.33 0-68.87 6.16-137.57 6.16-206.39 0-166.53-21.56-332.32-21.56-499.02 0-90.36 3.08-180.7 3.08-271.07 0-56.47-3.08-112.91-3.08-169.41 0-56.51 3.08-112.93 3.08-169.42V828.69c0-111.29-.04-222.75-9.04-333.75l-.2-2.53v-2.55c0-47.99-.85-97.08 25.81-139.35 33.94-53.8 94.36-68.34 154.16-68.34 88.8 0 216.78-7.89 289.4 51.14 84.63 68.81 84.64 214.4 84.64 313.66 0 5.82-.66 11.41-1.91 16.69zm624.35 280.36c-.1-63.16-6.16-126.1-6.16-189.24 0-54.8 2.99-109.36 9.24-163.78-.2-70.69-6.16-141.28-6.16-212.02 0-32.83 7.96-64.21 31.59-88.24 32.05-32.62 77.6-36.28 120.67-36.28 48.73 0 96.77 9.24 144.78 9.24 37.98 0 80.05-9.79 117.98-14.85l4.14-.55h4.18c21.27 0 41.82 5.04 60.43 15.43 77.81 43.46 88.4 160.48 92.07 239.99 1.58 33.93 1.73 67.84 2.16 101.8.26 20.74-.05 45.48 3.04 65.92 23.31 153.86 22.25 316.85 21.46 472.32-.48 91.57-1.51 183.25.8 274.79l.02.8v.79c0 86.31-6.17 172.49-6.17 258.76 0 31.61 6.17 63.35 6.17 95.48 0 183.14-21.57 365.52-21.57 548.31 0 53.89-1.54 107.78-2.86 161.66-2.35 96.12-5.52 198.33 6.83 293.72 7.35 56.69 23.54 134.26 68.54 174.02 27.57 24.34 62.77 31.57 98.68 31.57 40.36 0 84.88-6.1 116.69-33.17 36.66-31.21 52.72-87.02 61.52-132.43 16.81-86.76 17.62-185.32 17.62-273.58 0-197.67-24.64-394.39-24.64-591.42 0-23.76 3.08-47.35 3.08-70.85 0-111.09-15.4-221.49-15.4-332.68 0-69.98 9.24-139.58 9.24-209.47 0-50.29-6.16-100.5-6.16-150.93 0-86.54 12.32-172.44 12.32-258.76 0-47.2-6.16-94.32-6.16-141.69 0-64.04-4.33-128.53-5.22-192.71-1.31-96.23-7.14-326.11 135.91-326.11 62.53 0 127.09 18.48 190.99 18.48h49.29c49.88 0 96.63 14.47 132.44 50.35 87.83 87.99 61.27 258.22 65.96 373.5 9.42 231.76 24.69 463.59 24.69 695.63 0 35.96-3.08 71.86-3.08 107.82 0 60.62 6.16 121.09 6.16 181.74 0 118.2-9.24 236.13-9.24 354.25 0 81.16 6.16 162.18 6.16 243.34 0 113.36-12.41 226.96-9.26 340.17l.02.87v40.92c0 168.86-5.3 430.47-84.48 578.05l-1.47 2.74-1.74 2.58c-40.77 60.69-86.76 117.32-141.81 165.68-171.19 150.38-392.36 182.52-612.74 182.52-128.78 0-262.62-16.66-372.29-89.56-150.31-99.92-213-278.78-248.06-447.68-26.46-127.47-39.41-260.1-47.74-389.88-11.35-176.53-13.98-354.34-13.98-531.2 0-70.93 6.15-141.68 6.15-212.55v-58.53c0-92.42-3.07-184.81-3.07-277.23 0-219.41 6.17-438.8 18.47-657.86zm2116.69-280.36c3.31 41.66 8.07 83.01 8.07 125.01 0 61.86-9.25 123.21-9.25 184.82 0 139.78 18.49 278.98 18.49 418.93 0 156.08-3.08 312.13-3.08 468.22 0 63.67 3.08 127.31 3.08 190.99 0 22.68-3.08 45.16-3.08 67.76 0 292.75 43.89 583.79 46.12 876.58 131.56-.58 261.81-27.55 393.15-33.8l1.49-.07h1.49c107.27 0 142.16 134.16 156.73 217.79 10.4 59.71 17.09 129.2 17.09 190.13 0 116.37-168.63 147.54-256.4 160.45-69.34 10.2-145.92 16.45-216.21 16.45-85.83 0-171.23.97-257.08-2.06-71.91-2.54-148.66-6.93-219.27-20.97-59.78-11.89-139.82-35.97-152.36-105.76-34.11-189.77-53.35-375.65-53.35-568.67v-64.69c0-30.79-3.08-61.55-3.08-92.41 0-50.44 6.16-100.64 6.16-150.94 0-55.41-9.25-110.57-9.25-166.33 0-68.87 6.17-137.57 6.17-206.39 0-166.53-21.56-332.32-21.56-499.02 0-90.36 3.07-180.7 3.07-271.07 0-56.47-3.07-112.91-3.07-169.41 0-56.51 3.07-112.93 3.07-169.42V828.69c0-111.29-.03-222.75-9.03-333.75l-.2-2.53v-2.55c0-47.99-.86-97.08 25.8-139.35 33.95-53.8 94.36-68.34 154.16-68.34 88.8 0 216.78-7.89 289.4 51.14 84.63 68.81 84.65 214.4 84.65 313.66 0 5.82-.66 11.41-1.91 16.69zm624.35 280.36c-.11-63.16-6.16-126.1-6.16-189.24 0-54.8 2.98-109.36 9.24-163.78-.2-70.69-6.16-141.28-6.16-212.02 0-32.83 7.96-64.21 31.58-88.24 32.06-32.62 77.6-36.28 120.68-36.28 48.72 0 96.76 9.24 144.78 9.24 37.98 0 80.05-9.79 117.97-14.85l4.15-.55h4.17c21.28 0 41.83 5.04 60.44 15.43 77.81 43.46 88.39 160.48 92.07 239.99 1.57 33.93 1.73 67.84 2.16 101.8.26 20.74-.05 45.48 3.04 65.92 23.31 153.86 22.25 316.85 21.45 472.32-.47 91.57-1.51 183.25.8 274.79l.02.8v.79c0 86.31-6.16 172.49-6.16 258.76 0 31.61 6.16 63.35 6.16 95.48 0 183.14-21.56 365.52-21.56 548.31 0 53.89-1.54 107.78-2.86 161.66-2.36 96.12-5.52 198.33 6.83 293.72 7.34 56.69 23.53 134.26 68.54 174.02 27.56 24.34 62.76 31.57 98.67 31.57 40.36 0 84.88-6.1 116.7-33.17 36.66-31.21 52.71-87.02 61.51-132.43 16.81-86.76 17.62-185.32 17.62-273.58 0-197.67-24.63-394.39-24.63-591.42 0-23.76 3.08-47.35 3.08-70.85 0-111.09-15.4-221.49-15.4-332.68 0-69.98 9.24-139.58 9.24-209.47 0-50.29-6.16-100.5-6.16-150.93 0-86.54 12.32-172.44 12.32-258.76 0-47.2-6.16-94.32-6.16-141.69 0-64.04-4.34-128.53-5.22-192.71-1.32-96.23-7.14-326.11 135.89-326.11 62.53 0 127.1 18.48 190.99 18.48h49.29c49.88 0 96.63 14.47 132.45 50.35 87.82 87.99 61.27 258.22 65.95 373.5 9.42 231.76 24.7 463.59 24.7 695.63 0 35.96-3.08 71.86-3.08 107.82 0 60.62 6.16 121.09 6.16 181.74 0 118.2-9.24 236.13-9.24 354.25 0 81.16 6.16 162.18 6.16 243.34 0 113.36-12.41 226.96-9.27 340.17l.03.87v40.92c0 168.86-5.3 430.47-84.49 578.05l-1.47 2.74-1.73 2.58c-40.77 60.69-86.76 117.32-141.82 165.68-171.18 150.38-392.36 182.52-612.73 182.52-128.79 0-262.63-16.66-372.29-89.56-150.31-99.92-213.01-278.78-248.07-447.68-26.46-127.47-39.41-260.1-47.74-389.88-11.34-176.53-13.98-354.34-13.98-531.2 0-70.93 6.16-141.68 6.16-212.55v-58.53c0-92.42-3.08-184.81-3.08-277.23 0-219.41 6.17-438.8 18.48-657.86zM719.1 1082.56c3.32 85.41 3.99 171.18 5.44 256.48 1.84 107.66 3.4 217.79 13.8 324.95 2.64 27.19 13.86 124.44 31.66 155.2 91.06-.48 218.86-7.3 289.13-66.77 54.09-45.76 67.01-116.94 67.01-184.47 0-122.32 2.02-244.04-3.75-366.34-3.95-83.67-22.55-454.81-152.03-454.81-69.35 0-135.65 14.6-203.92 24.04-10.31 1.43-21.44 4.37-28.55 12.5-27.24 31.19-17.84 149.53-16.58 189.57.49 15.56.85 31.14.85 46.71v62.92h-3.06zm1938.72 1032.37c-12.21-364.88-29.56-729.57-47.07-1094.25-3.6-43.11-7.52-86.25-14.42-128.97-8.07-49.99-27.65-145.07-73.72-174.86-11.33-7.33-23.58-10.1-36.98-10.1-57.85 0-150.76 5.01-185.26 61.23-20.85 33.97-24.04 86.5-25.36 125.35-2.2 65.15.27 129.23-7.1 194.31-5.77 63.57-12 126.82-12 190.73 0 250.89-7.61 515.52 30.09 763.72l.71 4.7v23.23c0 20.35-2.3 40.38-5.75 60.4-5.79 33.58-15.81 68.74-15.81 102.86 0 92.45-5.09 185.03-6.34 277.51-1.36 100.93-4.59 353.2 87.08 419.85 19.48 14.17 42.02 19.04 65.82 19.04 201.06 0 257.43-92.92 257.43-285.16 0-161.91-9.26-323.65-12.31-485.51l-1.21-64.11h2.19zm3282.22-475.18c-10.22-49.69-6.39-119.23-4.94-168.57.84-28.3 1.83-56.67 1.83-84.98 0-98.89-3.24-198.68-11.63-297.22-6.51-76.33-16.04-158.15-35.89-232.22-4.99-18.65-26.61-88.62-45-97.79-40.47-13.49-88.25-24.49-131.05-24.49-17.08 0-33.28 3.27-48.02 12.19-55.16 33.4-76.89 138.78-85.99 196.82-19.23 122.83-18.82 256.5-18.82 380.8 0 35.01.12 70.02.12 105.03v113.98c0 180.16-9.18 360.19-9.24 540.39 65.16-2.8 129.72-18.05 195.83-18.05h24.65c19.58 0 125.42 5.16 139.4-4.11 32.95-21.85 29.13-357.49 28.73-421.79z" fill="#ac3335"/><path d="M884.09 255.71H705.43c-169.41 0-455.88 49.29-455.88 135.54 0 49.29 6.16 98.56 6.16 147.85-6.16 264.92-24.65 539.07-24.65 816.29v107.82c0 92.41-3.07 181.75-3.07 274.15 0 80.09 9.23 157.1 9.23 237.19 0 86.25-3.08 169.41-3.08 255.67v55.45c12.33 215.62 33.89 1173.61 150.94 1173.61 77.01-9.24 357.32 3.08 357.32-163.25-9.24-304.96-33.88-616.08-33.88-921.03 6.16-95.49 147.86-77.01 240.27-86.25 9.24 0 21.56 3.08 30.8 3.08 70.85-3.08 138.61-3.08 209.46-6.16 381.96-61.61 431.25-569.87 431.25-924.11 0-224.86 98.57-1108.93-535.98-1108.93-64.69 0-135.54 3.08-200.23 3.08zm-224.87 763.93c0-138.62-30.79-292.63 98.57-311.11 70.85-9.24 135.54-24.64 212.55-24.64 240.26 0 218.7 594.5 218.7 884.06 0 274.15-200.22 314.19-431.25 314.19-117.05 0-86.24-545.23-104.73-862.5h6.16zm2504.09 499.02h3.08c-33.87-785.49-36.96-1290.67-548.3-1290.67-89.33 0-181.75 15.4-271.07 15.4h-12.33c-625.31 0-597.58 489.78-597.58 908.71 6.16 107.82 9.24 212.54 9.24 320.35 0 184.82-15.4 375.8-15.4 560.62-3.08 120.14 30.8 221.79 43.13 341.93 70.85 813.21 120.14 1133.57 625.31 1133.57 237.19 0 375.81-46.21 545.23-123.22 258.75-117.05 227.94-440.49 227.94-720.8 0-187.9-15.39-378.88-15.39-566.78 0-194.07 6.15-385.05 6.15-579.11zm-443.56 659.19c3.08 163.26 12.32 323.44 12.32 486.7 0 234.11-89.33 348.08-320.35 348.08-274.16 0-209.47-483.62-209.47-779.33 0-58.53 21.56-107.82 21.56-163.26v-18.47c-36.97-243.35-30.8-523.66-30.8-773.18 0-67.76 6.16-129.37 12.32-197.14 24.64-215.63-61.61-437.41 280.31-437.41 154.02 0 175.58 224.86 187.91 372.72 18.48 385.04 36.97 773.17 49.29 1161.29h-3.08zm1293.51 246.43c89.33 184.82 101.64 422.01 163.25 619.15 27.72 92.41 132.46 511.34 224.87 511.34 89.32 0 415.85-9.24 415.85-89.33 0-147.86-117.06-354.24-150.94-511.34-46.21-215.62-104.73-428.17-175.58-653.03-40.04-120.14-163.25-332.68-163.25-462.05 0-18.48 3.08-36.97 12.32-55.45 157.09-369.64 317.27-757.77 480.54-1158.21 33.87-80.09 80.08-212.55 80.08-289.55 0-40.05-40.05-58.53-80.08-58.53-83.17 0-163.26 3.08-246.43 3.08-89.33 0-163.25 274.15-197.14 415.85-3.08 15.4-175.58 542.14-240.27 542.14-92.4 0-215.62-970.31-409.68-970.31-70.86 0-292.64 27.72-292.64 77.01 0 36.97 21.56 83.17 33.88 123.21 77.01 246.43 150.94 492.86 227.94 739.29 24.64 77 178.67 465.13 178.67 566.78 0 49.29-67.77 157.1-95.49 231.03-98.56 255.67-277.23 594.5-351.16 976.47-30.8 113.98-98.57 261.84-98.57 378.88 0 95.49 123.22 107.82 268 107.82 89.32 0 169.41-304.95 218.7-468.22 49.29-157.09 110.9-532.89 197.15-576.02zm1071.72 215.62c0 227.94 3.08 455.89 18.48 683.84 0 117.06 36.97 120.14 120.14 120.14 113.97-9.24 329.6 0 329.6-95.48v-24.65c-40.05-178.66-61.61-428.16-61.61-631.47 0-70.85-3.08-113.98 55.45-120.14 9.24 0 21.56 3.08 30.8 3.08 101.65 0 206.38-3.08 308.03-3.08 120.14 0 89.33 261.84 89.33 431.25 0 55.45-3.08 110.9-3.08 166.34 0 129.38 240.26 83.17 409.69 83.17 52.37 0 67.77-70.85 67.77-113.98 36.96-394.29 21.56-825.54 21.56-1232.14 0-43.13-3.08-83.17-3.08-126.3 0-132.45 15.39-271.07 15.39-394.29 0-258.75 6.16-508.26-55.44-739.28-36.97-135.54-166.34-209.46-271.08-292.63-107.81-86.25-388.12-98.57-569.86-98.57-314.19 0-452.81 113.98-489.78 489.78-18.48 304.95-40.05 609.91-40.05 921.02 9.24 332.69 18.48 649.96 27.72 973.4zm917.95-1007.27c0 548.3-9.24 495.93-231.02 495.93h-24.65c-70.84 0-141.69 18.48-215.62 18.48-33.88 0-43.13-33.88-43.13-61.61 0-187.9 9.24-366.56 9.24-542.14v-113.98c0-357.32-12.32-757.77 215.62-757.77 49.29 0 104.73 12.32 150.94 27.72 120.14 40.05 135.54 486.7 135.54 686.92 0 83.17-9.24 197.15 3.08 246.43zm1071.72-982.64c3.08 0 3.08 0 3.08-3.08 0-304.95-61.61-301.87-311.11-301.87-120.14 0-117.06 67.76-117.06 144.77 9.24 113.98 9.24 227.95 9.24 338.84v231.04c0 58.53-3.08 110.9-3.08 169.42 0 58.52 3.08 113.97 3.08 169.41 0 89.33-3.08 181.75-3.08 271.07 0 166.34 21.56 332.69 21.56 499.02 0 67.77-6.16 138.62-6.16 206.39 0 55.45 9.24 110.89 9.24 166.33 0 49.29-6.16 101.65-6.16 150.94 0 30.8 3.08 61.61 3.08 92.41v64.69c0 194.06 18.48 369.64 52.37 557.54 15.4 86.25 412.77 77.01 566.79 77.01 58.53 0 409.69-12.32 409.69-113.98 0-18.47-6.17-345-110.9-345-129.38 6.16-264.92 33.88-400.45 33.88-33.88 0-55.45-12.32-58.53-40.05 0-295.71-46.21-600.66-46.21-899.47 0-24.63 3.08-46.21 3.08-67.76 0-61.61-3.08-126.3-3.08-190.99 0-160.18 3.08-311.11 3.08-468.22 0-138.62-18.48-280.31-18.48-418.93 0-61.61 9.24-123.21 9.24-184.82 0-46.21-6.16-92.41-9.24-138.62zm735.96 1229.06v58.53c0 70.85-6.15 141.69-6.15 212.55 0 1136.64 132.45 1395.4 619.15 1395.4 391.2 0 563.71-113.98 702.32-320.35 67.77-126.3 77.01-363.49 77.01-548.31v-40.05c-3.08-110.9 9.24-231.02 9.24-341.92 0-80.09-6.16-160.18-6.16-243.34 0-117.06 9.24-234.11 9.24-354.25 0-58.52-6.16-120.13-6.16-181.74 0-36.97 3.08-73.93 3.08-107.82 0-227.94-15.4-462.05-24.64-693.08-6.16-147.86 33.88-363.48-135.53-363.48h-49.29c-64.69 0-147.86-18.48-190.99-18.48-101.65 0-67.77 314.19-67.77 455.89 0 46.2 6.16 95.48 6.16 141.69 0 86.25-12.32 172.5-12.32 258.76 0 49.28 6.16 101.64 6.16 150.93 0 70.85-9.24 141.7-9.24 209.47 0 110.89 15.4 218.7 15.4 332.68 0 21.56-3.08 46.21-3.08 70.85 0 178.66 24.64 385.04 24.64 591.42 0 329.61-33.88 502.1-258.75 502.1-292.63 0-234.11-400.45-234.11-723.88 0-175.58 21.56-363.48 21.56-548.31 0-30.8-6.16-64.69-6.16-95.48 0-83.17 6.16-172.5 6.16-258.76-6.16-243.34 12.32-520.57-21.56-739.28-12.31-86.25 21.56-369.64-95.48-369.64-46.21 6.16-86.25 15.4-126.3 15.4-46.21 0-95.49-9.24-144.78-9.24-61.6 0-89.33 9.24-89.33 61.61 0 70.84 6.16 144.77 6.16 215.62-6.16 52.37-9.24 104.73-9.24 160.18 0 61.61 6.16 123.21 6.16 190.98a11663.705 11663.705 0 00-18.47 656.12c0 92.4 3.07 184.82 3.07 277.23zM9815.68 649.99c3.08 0 3.08 0 3.08-3.08 0-304.95-61.6-301.87-311.11-301.87-120.13 0-117.05 67.76-117.05 144.77 9.23 113.98 9.23 227.95 9.23 338.84v231.04c0 58.53-3.07 110.9-3.07 169.42 0 58.52 3.07 113.97 3.07 169.41 0 89.33-3.07 181.75-3.07 271.07 0 166.34 21.56 332.69 21.56 499.02 0 67.77-6.16 138.62-6.16 206.39 0 55.45 9.24 110.89 9.24 166.33 0 49.29-6.16 101.65-6.16 150.94 0 30.8 3.08 61.61 3.08 92.41v64.69c0 194.06 18.48 369.64 52.37 557.54 15.39 86.25 412.77 77.01 566.78 77.01 58.53 0 409.69-12.32 409.69-113.98 0-18.47-6.16-345-110.9-345-129.37 6.16-264.91 33.88-400.44 33.88-33.89 0-55.45-12.32-58.54-40.05 0-295.71-46.2-600.66-46.2-899.47 0-24.63 3.08-46.21 3.08-67.76 0-61.61-3.08-126.3-3.08-190.99 0-160.18 3.08-311.11 3.08-468.22 0-138.62-18.49-280.31-18.49-418.93 0-61.61 9.25-123.21 9.25-184.82 0-46.21-6.17-92.41-9.25-138.62zm735.97 1229.06v58.53c0 70.85-6.16 141.69-6.16 212.55 0 1136.64 132.46 1395.4 619.16 1395.4 391.19 0 563.7-113.98 702.32-320.35 67.77-126.3 77.01-363.49 77.01-548.31v-40.05c-3.08-110.9 9.24-231.02 9.24-341.92 0-80.09-6.16-160.18-6.16-243.34 0-117.06 9.24-234.11 9.24-354.25 0-58.52-6.16-120.13-6.16-181.74 0-36.97 3.08-73.93 3.08-107.82 0-227.94-15.4-462.05-24.64-693.08-6.16-147.86 33.88-363.48-135.54-363.48h-49.29c-64.69 0-147.86-18.48-190.99-18.48-101.64 0-67.76 314.19-67.76 455.89 0 46.2 6.16 95.48 6.16 141.69 0 86.25-12.32 172.5-12.32 258.76 0 49.28 6.16 101.64 6.16 150.93 0 70.85-9.24 141.7-9.24 209.47 0 110.89 15.4 218.7 15.4 332.68 0 21.56-3.08 46.21-3.08 70.85 0 178.66 24.64 385.04 24.64 591.42 0 329.61-33.88 502.1-258.76 502.1-292.63 0-234.1-400.45-234.1-723.88 0-175.58 21.56-363.48 21.56-548.31 0-30.8-6.16-64.69-6.16-95.48 0-83.17 6.16-172.5 6.16-258.76-6.16-243.34 12.32-520.57-21.56-739.28-12.32-86.25 21.56-369.64-95.49-369.64-46.21 6.16-86.25 15.4-126.29 15.4-46.21 0-95.49-9.24-144.78-9.24-61.61 0-89.33 9.24-89.33 61.61 0 70.84 6.16 144.77 6.16 215.62-6.16 52.37-9.24 104.73-9.24 160.18 0 61.61 6.16 123.21 6.16 190.98a11663.72 11663.72 0 00-18.48 656.12c0 92.4 3.08 184.82 3.08 277.23z" fill="#fefefe" fill-rule="nonzero"/><path d="M254.57 2285.07c4.37 76.75 6.89 153.83 10.32 230.64 5.02 112.4 10.75 224.8 18.44 337.07 5.07 73.97 10.97 147.94 18.55 221.7 6.6 64.21 14.34 128.79 25.41 192.39 7.49 43.09 17 92.26 32.93 133.05 2.25 5.74 15.96 37.25 24.22 38.87 24.79-2.86 50.87-3.42 75.81-5.07 34.34-2.3 68.81-5.56 102.68-11.8 69.1-12.72 159.04-40.84 159.05-125.27-9.31-307.26-33.89-614.12-33.89-921.64v-.66l.04-.66c1.31-20.28 7.88-38.97 21.28-54.45 48.13-55.56 168.35-43.91 237.35-50.8l1.02-.11h1.02c10.36 0 20.6 3 30.4 3.08 69.23-2.99 138.55-3.11 207.78-6.09 380.62-62.47 412.91-600.16 412.91-903.75 0-33.71 1.52-67.68 2.63-101.38 1.5-46 2.72-91.98 2.89-138 .39-110.67-4.84-222.74-22.99-332.03-47.18-284.07-178.01-517.1-498.08-517.1-66.75 0-133.48 3.08-200.23 3.08H705.45c-57.7 0-116.95 5.15-174.07 13.31-61.49 8.78-129.86 22.12-187.75 44.91-18.99 7.48-73.64 31.15-73.64 56.9 0 49.33 6.16 98.47 6.16 147.85v.48c-6.33 272.05-24.64 543.56-24.64 815.82v107.82c0 91.4-3.08 182.75-3.08 274.15 0 79.17 9.24 157.99 9.24 237.19 0 85.24-3.08 170.43-3.08 255.67v54.86zM638.6 999.21c-.14-7.9-.36-15.79-.61-23.67-2.29-72.77-13.95-188.56 37.13-247.02 20.88-23.91 48.86-35.94 79.89-40.24 72.77-10.07 141.15-24.83 215.35-24.83 21.67 0 42.68 4.27 62.4 13.31 74.31 34.04 110.78 126.15 130.69 199.84 27.53 101.92 37.22 215.79 42.19 321.07 5.84 123.64 3.85 246.62 3.85 370.27 0 287.81-210.23 334.62-451.69 334.62-73.61 0-90.8-134.93-97.56-187.17-7.5-57.95-11.09-116.98-13.65-175.34-2.92-66.48-4.26-133.06-5.39-199.59-1.82-106.33-2.34-213.48-8.53-319.63l-1.26-21.61h7.19zm2506.48 499.02c-5.51-129.38-10.45-258.88-18.37-388.11-6.94-113.37-15.99-227.98-33.77-340.21-23.63-149.09-67.83-332.51-189.53-433.57-80.92-67.2-182.37-87.92-285.3-87.92-90.52 0-180.43 15.39-271.07 15.39h-12.33c-176.31 0-357.69 38.37-464.38 191.41-101.97 146.26-111.11 362.18-112.72 534.7-.5 53.85-.06 107.71-.05 161.58 6.1 106.91 9.23 213.86 9.23 320.94 0 186.99-15.39 373.65-15.39 560.62l-.01.53c-2.95 115.08 32.89 225.56 43.04 339.58 11.16 125.22 22.48 250.67 37.5 375.49 11.75 97.57 25.73 196.26 47.48 292.14 28.54 125.81 74.59 267.64 178.08 352.34 95.19 77.93 222.79 95 341.91 95 131.15 0 251.02-14.46 375.59-56.35 54.98-18.48 108.4-41.11 161.21-65.04 53.94-24.45 98.17-60 131.81-108.88 83.21-120.91 85.77-304.23 85.24-445.94-.18-49.12-1.1-98.25-1.1-147.37 0-189.03-15.4-377.73-15.4-566.78 0-193.06 6.16-386.06 6.16-579.11v-20.42h2.19zm-941.7 554.86c-20.8-137.7-27.43-278.8-29.92-417.93-2.13-118.93-.87-237.84-.87-356.78 0-66.76 6.36-132.59 12.4-198.99l.04-.47c7.17-62.71 4.56-125.49 6.69-188.39 1.89-56 7.67-117.34 37.62-166.15 53.1-86.51 163.63-100.97 256.31-100.97 178.57 0 197.37 260.74 208.26 391.45l.05.72c18.58 387.11 37 774.26 49.3 1161.62l.67 21.09h-3.32c3.42 155.43 11.9 310.75 11.9 466.26 0 238.41-92.07 368.51-340.78 368.51-41.64 0-80.91-10.31-114.85-34.98-63.03-45.85-90.33-128.82-104.11-202.23-17.33-92.34-18.53-192.37-17.27-286.17 1.24-92.1 6.34-184.33 6.34-276.39 0-40.91 10.17-77.33 17.02-117.04 2.64-15.29 4.53-30.68 4.53-46.23v-16.94zm2117.83-278.08c163.36-384.4 321.67-770.99 480.19-1157.42 30.07-73.28 78.57-203.97 78.57-281.79 0-29.61-36.14-38.1-59.66-38.1-82.17 0-164.28 3.08-246.43 3.08-25.75 0-52.72 43.4-63.55 62.48-27.41 48.3-47.96 106.06-64.82 158.89-18.74 58.7-34.48 118.53-48.82 178.46-1.9 9.24-6.28 20.97-9.18 29.95-6.99 21.59-14.23 43.12-21.57 64.6-21.58 63.11-44.23 126-68.32 188.21-23.73 61.29-49.16 124.33-79.13 182.83-13.75 26.85-46.23 92.57-82.02 92.57-27.7 0-45.1-33.06-55.21-54.6-16.96-36.13-29.76-77.35-41.26-115.54-33.85-112.41-61.58-227.34-92.86-340.59-20.57-74.5-121.43-459.58-220.35-459.58-43.63 0-93.69 6.52-136.68 13.68-31.36 5.24-64.48 11.89-94.6 22.13-7.8 2.65-37.58 13.89-40.93 20.77 0 34.4 22.45 83.44 32.95 117.13 76.77 246.17 150.62 493.25 227.93 739.24 11.46 36.44 25.92 73.39 39.09 109.31 21.03 57.41 41.98 114.84 62.03 172.6 19.31 55.6 38.15 111.79 54.23 168.42 10.03 35.33 24.26 85.93 24.26 122.59 0 41.04-37.46 112.04-55.85 149.37-14.29 28.99-29.42 58.79-40.99 88.98-26.78 69.89-56.54 138.83-86.14 207.57-33.46 77.67-66.98 155.27-98.6 233.71-69.56 172.47-130.03 348.84-165.43 531.77l-.14.73-.19.72c-15.97 59.09-37.86 117.17-56.72 175.45-19.81 61.28-41.14 133.36-41.14 198.09 0 12.71 2.65 24.81 9.8 35.47 35.96 53.61 180.99 51.92 237.76 51.92 26.4 0 56.84-54.53 67.04-73.99 30.09-57.43 52.9-124 72.88-185.64 20.89-64.42 39.34-129.47 59.25-194.17 11.77-38.24 21.37-77.66 30.87-116.53 11.73-48.02 23.08-96.12 35.16-144.05 17.15-68.15 35.64-138.57 60.57-204.28 14.71-38.75 41.74-103.82 80.95-123.43l18.52-9.25 9.01 18.64c93.05 192.51 101.76 419.03 164.39 622.02 10.71 34.72 20.11 70.15 30.17 105.09 14.74 51.16 30.1 102.17 47.07 152.64 19.22 57.16 41.31 118.36 69.68 171.6 8.09 15.19 37.72 67.61 58.42 67.61 65.64 0 133.04-3.15 198.31-9.76 46.87-4.75 99.3-11.57 144.25-25.79 10.9-3.45 52.86-18.06 52.86-33.36 0-86.98-42.87-196.29-73.69-277.29-28.15-73.99-60.17-152.35-76.79-229.76-47.3-220.1-106.18-436.76-175.07-651.07-10.81-33.62-25.39-67.12-39.59-99.45-17.45-39.7-35.52-79.12-52.67-118.95-30.81-71.59-71.98-171.49-71.98-249.91 0-22.55 4.18-43.73 14.19-64zm901.55 1648.44c43.83-3.52 88-4.27 131.91-7.34 37.87-2.65 178.1-10.41 178.1-67.72v-22.4c-26.67-119.69-41.57-245.98-50.99-368.13-6.8-88.25-10.62-177.08-10.62-265.6 0-61.97-6.46-132.01 73.75-140.45l1.07-.11h1.07c10.5 0 20.88 3.08 30.8 3.08 102.68 0 205.35-3.08 308.03-3.08 15.71 0 30.74 3.61 44.33 11.59 40.06 23.53 54.44 77.2 61.13 119.98 8.9 56.85 8.46 118.36 7.35 175.85-.93 48.06-3.05 96.19-3.05 144.25 0 55.47-3.08 110.89-3.08 166.34 0 11.87 2.48 23.23 9.6 32.93 18.54 25.21 64.13 32.46 92.94 35.28 53 5.21 109.8 1.85 162.97-.89 41.17-2.11 82.52-4.57 123.76-4.57 38.1 0 47.33-65.49 47.33-93.54v-.96l.09-.96c22.85-243.82 25.41-490.47 24.53-735.23-.6-165-3.06-330-3.06-495 0-42.13-3.08-84.17-3.08-126.3 0-131.68 15.4-262.87 15.4-394.29 0-241.6 8.44-499.02-54.74-733.98-34.72-129.08-165.96-203.76-264.08-281.97-109.29-87.11-416.73-94.12-557.13-94.12-105.84 0-226.99 11.89-313.24 79.61-112.66 88.45-142.97 257.4-156.18 391.36-18.56 306.29-39.97 612.37-39.98 918.84 9.01 324.46 18.45 648.91 27.72 973.38v.58c0 227.6 3.09 455.31 18.44 682.46l.05.68v.69c0 23.25.4 72.85 21.94 88.57 16.9 12.31 56.34 11.17 76.93 11.14zm800.59-1790.82c0 70.66.03 141.42-1.37 212.07-.95 47.49-2.32 95.84-7.14 143.11-4.87 47.84-13.69 114.16-57.46 143.18-22.97 15.23-51.32 18.34-78.2 19.12-35.5 1.05-71.65-1.13-107.28-1.13h-24.65c-71.97 0-142.9 18.48-215.62 18.48-46.25 0-63.56-42.16-63.56-82.04 0-180.79 9.25-361.41 9.25-542.14V1429.3c0-35-.12-70.02-.12-105.02 0-128.94-.14-266.28 19.82-393.72 13.84-88.29 42.96-205.45 125.16-255.23 27.86-16.87 58.77-24.24 91.18-24.24 52.01 0 108.19 12.37 157.4 28.78 55.31 18.42 82.87 97.01 97.04 147.56 22.68 80.91 33.41 170.8 40.53 254.45 8.6 100.88 11.94 203.04 11.94 304.29 0 29.14-1 58.31-1.86 87.44-.88 29.96-1.81 60.05-1.36 90.01.3 19.86.87 44.75 5.69 64.02l.61 2.44v2.52zm646.64-1143.64c9.11 113.02 9.23 226.36 9.23 339.66v231.04c0 56.49-3.07 112.93-3.07 169.42 0 56.49 3.07 112.93 3.07 169.41 0 90.37-3.07 180.71-3.07 271.07 0 166.6 21.56 332.38 21.56 499.02 0 68.85-6.17 137.55-6.17 206.39 0 55.54 9.25 110.68 9.25 166.33 0 50.4-6.16 100.6-6.16 150.94 0 30.82 3.08 61.56 3.08 92.41v64.69c0 188.07 18.8 369.03 52.04 553.92 3.72 20.71 70.44 35.55 86.59 38.76 66.02 13.12 138.71 17.05 205.96 19.42 84.85 3 169.29 2.01 254.13 2.01 66.22 0 138.75-5.95 204.08-15.55 33.66-4.95 185.17-29.52 185.17-77.99 0-19.87-1.23-40.5-2.55-60.31-2.57-38.57-6.67-77.42-13.3-115.52-5.7-32.71-28.14-148.03-74.19-148.74-134.09 6.45-265.98 33.88-400.86 33.88-38.94 0-74.1-15.72-78.83-58.22l-.12-1.12v-1.14c0-300.34-46.21-598.91-46.21-899.47 0-22.72 3.08-45.21 3.08-67.76 0-63.67-3.08-127.3-3.08-190.99 0-156.09 3.08-312.14 3.08-468.22 0-139.83-18.48-279.04-18.48-418.93 0-61.78 9.24-123.12 9.24-184.82 0-45.83-6.15-91.57-9.2-137.26l-1.45-21.79h4.45c-.27-50.19-2.12-105.75-12.87-153.45-6.49-28.8-17.32-58.97-40.96-78.18-23.11-18.79-55.86-25.06-84.69-28.25-49.34-5.46-102.44-4.22-152.13-4.22-96.94 0-96.63 42.34-96.62 123.52zM8184.57 331.6c-42.14 5.71-84.96 15.38-127.53 15.38-48.39 0-96.36-9.24-144.78-9.24-14.79 0-49.88-.18-61.22 11.36-6.86 6.98-7.68 20.71-7.68 29.83 0 71.91 6.16 143.69 6.16 215.62v1.2l-.14 1.19c-6.17 52.44-9.1 104.99-9.1 157.79 0 63.66 6.16 127.18 6.16 190.98v.58l-.03.57c-12.29 218.1-18.45 436.53-18.45 654.97 0 92.41 3.08 184.81 3.08 277.23v58.53c0 70.91-6.16 141.65-6.16 212.55 0 175.07 2.58 351.11 13.82 525.85 8.07 125.83 20.52 254.71 46.17 378.28 30.05 144.78 83.05 309.09 212.6 395.21 94.64 62.91 215.25 75.63 326.14 75.63 198.29 0 403.28-26.12 557.73-161.79 49.32-43.33 90.5-94.35 127.06-148.68 69.85-131.3 74.11-387.16 74.11-537.76 0-13.35 0-26.7.01-39.48-3.18-114.23 9.23-228.3 9.23-342.49 0-81.15-6.16-162.17-6.16-243.34 0-118.15 9.24-236.08 9.24-354.25 0-60.59-6.16-121.06-6.16-181.74 0-35.99 3.08-71.89 3.08-107.82 0-230.88-15.26-461.63-24.63-692.25-1.55-38.1-.26-76.46.06-114.6.48-57.64 1.96-159.62-41.73-203.4-19.77-19.81-46.21-25.88-73.44-25.88h-49.29c-23.31 0-46.83-2.12-69.97-4.8-23.01-2.66-45.91-6.02-68.87-9-16.86-2.2-35.17-4.69-52.15-4.69-3.25 0-6.37.55-9.36 1.87-46.48 20.47-43.78 197.6-43.2 239.76.88 64.56 5.23 129.4 5.23 193.84 0 47.26 6.16 94.38 6.16 141.69 0 86.47-12.32 172.36-12.32 258.76 0 50.34 6.16 100.55 6.16 150.93 0 70.01-9.24 139.62-9.24 209.47 0 111.06 15.4 221.45 15.4 332.68 0 23.63-3.08 47.18-3.08 70.85 0 94.61 6.45 189.64 12.28 284.05 6.31 102.36 12.35 204.78 12.35 307.37 0 94.01-1.23 197.01-19.13 289.43-12.82 66.16-36.44 135.03-89.32 180.05-47.97 40.84-109.22 53.06-170.72 53.06-56.81 0-110.57-14.24-153.84-52.45-62.72-55.39-85.69-146-96.03-225.79-12.95-99.98-9.96-205.76-7.5-306.47 1.31-53.19 2.84-106.4 2.84-159.61 0-182.87 21.56-365.24 21.56-548.31 0-31.81-6.16-63.51-6.16-95.48 0-86.28 6.16-172.46 6.17-258.24-2.34-92.4-1.3-184.92-.83-277.33.78-150.84 2.09-310.17-20.52-459.41-3.73-24.63-3.65-52.4-3.96-77.36-.42-33.01-.55-66-2.07-98.99-1.89-40.96-6.66-174.14-68.01-175.91zm1226.45 157.39c9.12 113.02 9.24 226.36 9.24 339.66v231.04c0 56.49-3.08 112.93-3.08 169.42 0 56.49 3.08 112.93 3.08 169.41 0 90.37-3.08 180.71-3.08 271.07 0 166.6 21.56 332.38 21.56 499.02 0 68.85-6.16 137.55-6.16 206.39 0 55.54 9.24 110.68 9.24 166.33 0 50.4-6.16 100.6-6.16 150.94 0 30.82 3.08 61.56 3.08 92.41v64.69c0 188.07 18.81 369.03 52.04 553.92 3.72 20.71 70.45 35.55 86.59 38.76 66.03 13.12 138.71 17.05 205.96 19.42 84.85 3 169.29 2.01 254.13 2.01 66.23 0 138.75-5.95 204.08-15.55 33.66-4.95 185.18-29.52 185.18-77.99 0-19.87-1.23-40.5-2.55-60.31-2.57-38.57-6.67-77.42-13.31-115.52-5.69-32.71-28.14-148.03-74.18-148.74-134.09 6.45-265.98 33.88-400.86 33.88-38.95 0-74.11-15.72-78.83-58.22l-.13-1.12v-1.14c0-300.34-46.21-598.91-46.21-899.47 0-22.72 3.08-45.21 3.08-67.76 0-63.67-3.08-127.3-3.08-190.99 0-156.09 3.08-312.14 3.08-468.22 0-139.83-18.48-279.04-18.48-418.93 0-61.78 9.24-123.12 9.24-184.82 0-45.83-6.15-91.57-9.2-137.26l-1.44-21.79h4.44c-.27-50.19-2.11-105.75-12.86-153.45-6.5-28.8-17.33-58.97-40.97-78.18-23.11-18.79-55.85-25.06-84.68-28.25-49.35-5.46-102.44-4.22-152.14-4.22-96.93 0-96.62 42.34-96.62 123.52zm1514.59-157.39c-42.14 5.71-84.97 15.38-127.53 15.38-48.39 0-96.36-9.24-144.78-9.24-14.79 0-49.88-.18-61.22 11.36-6.86 6.98-7.69 20.71-7.69 29.83 0 71.91 6.16 143.69 6.16 215.62v1.2l-.13 1.19c-6.17 52.44-9.11 104.99-9.11 157.79 0 63.66 6.16 127.18 6.16 190.98v.58l-.03.57c-12.28 218.1-18.44 436.53-18.44 654.97 0 92.41 3.07 184.81 3.07 277.23v58.53c0 70.91-6.15 141.65-6.15 212.55 0 175.07 2.58 351.11 13.81 525.85 8.08 125.83 20.52 254.71 46.18 378.28 30.05 144.78 83.04 309.09 212.59 395.21 94.64 62.91 215.25 75.63 326.15 75.63 198.28 0 403.28-26.12 557.72-161.79 49.33-43.33 90.5-94.35 127.06-148.68 69.86-131.3 74.11-387.16 74.11-537.76 0-13.35 0-26.7.01-39.48-3.17-114.23 9.23-228.3 9.23-342.49 0-81.15-6.16-162.17-6.16-243.34 0-118.15 9.24-236.08 9.24-354.25 0-60.59-6.16-121.06-6.16-181.74 0-35.99 3.08-71.89 3.08-107.82 0-230.88-15.25-461.63-24.62-692.25-1.56-38.1-.26-76.46.05-114.6.48-57.64 1.96-159.62-41.72-203.4-19.78-19.81-46.21-25.88-73.45-25.88h-49.29c-23.3 0-46.83-2.12-69.97-4.8-23.01-2.66-45.9-6.02-68.87-9-16.86-2.2-35.17-4.69-52.15-4.69-3.25 0-6.37.55-9.35 1.87-46.49 20.47-43.78 197.6-43.2 239.76.87 64.56 5.22 129.4 5.22 193.84 0 47.26 6.16 94.38 6.16 141.69 0 86.47-12.32 172.36-12.32 258.76 0 50.34 6.16 100.55 6.16 150.93 0 70.01-9.24 139.62-9.24 209.47 0 111.06 15.4 221.45 15.4 332.68 0 23.63-3.08 47.18-3.08 70.85 0 94.61 6.46 189.64 12.28 284.05 6.32 102.36 12.36 204.78 12.36 307.37 0 94.01-1.24 197.01-19.14 289.43-12.82 66.16-36.43 135.03-89.31 180.05-47.98 40.84-109.23 53.06-170.73 53.06-56.81 0-110.57-14.24-153.84-52.45-62.71-55.39-85.69-146-96.03-225.79-12.94-99.98-9.96-205.76-7.49-306.47 1.3-53.19 2.83-106.4 2.83-159.61 0-182.87 21.57-365.24 21.57-548.31 0-31.81-6.17-63.51-6.17-95.48 0-86.28 6.17-172.46 6.17-258.24-2.34-92.4-1.3-184.92-.82-277.33.77-150.84 2.09-310.17-20.52-459.41-3.73-24.63-3.66-52.4-3.98-77.36-.42-33.01-.55-66-2.07-98.99-1.89-40.96-6.66-174.14-68-175.91z" mask="url(#b)" fill="#a7c4d2"/></svg>